<?xml version="1.0" standalone="no"?>
<!DOCTYPE svg PUBLIC "-//W3C//DTD SVG 20010904//EN"
 "http://www.w3.org/TR/2001/REC-SVG-20010904/DTD/svg10.dtd">
<svg version="1.0" xmlns="http://www.w3.org/2000/svg"
 width="816.000000pt" height="445.000000pt" viewBox="0 0 816.000000 445.000000"
 preserveAspectRatio="xMidYMid meet">

<g transform="translate(0.000000,445.000000) scale(0.100000,-0.100000)"
fill="#000000" stroke="none">
<path d="M1927 3842 c16 -27 177 -303 358 -614 l330 -566 88 -7 c48 -4 91 -5
94 -2 3 4 -130 244 -296 534 l-301 528 263 6 c290 7 3117 11 3117 5 0 -2 -36
-72 -80 -154 -44 -83 -80 -153 -80 -156 0 -3 42 -6 93 -6 l94 0 103 188 c57
103 116 211 133 240 l29 52 -1986 0 -1986 0 27 -48z"/>
<path d="M4554 1928 c-619 -1064 -656 -1128 -663 -1128 -3 0 -128 213 -277
473 l-271 472 -104 5 c-57 3 -105 5 -106 5 -1 -1 168 -292 375 -647 207 -356
380 -644 383 -640 10 10 1159 1990 1165 2007 5 13 -8 15 -84 15 l-90 0 -328
-562z"/>
</g>
</svg>
