<?xml version="1.0" encoding="utf-8"?>
<!-- Generator: Adobe Illustrator 16.0.0, SVG Export Plug-In . SVG Version: 6.00 Build 0)  -->
<!DOCTYPE svg PUBLIC "-//W3C//DTD SVG 1.1//EN" "http://www.w3.org/Graphics/SVG/1.1/DTD/svg11.dtd">
<svg version="1.1" id="Capa_1" xmlns="http://www.w3.org/2000/svg" xmlns:xlink="http://www.w3.org/1999/xlink" x="0px" y="0px"
	 width="65.333px" height="70px" viewBox="0 0 65.333 70" enable-background="new 0 0 65.333 70" xml:space="preserve">
<g>
	<rect x="12.946" y="8.374" fill="#FFFFFF" width="7.893" height="7.283"/>
	<path fill="#FFFFFF" d="M55.905,25.958c-0.296-1.532-0.868-2.825-1.719-3.877c-1.053-1.292-2.225-2.197-3.518-2.714
		c-1.292-0.517-2.604-0.775-3.93-0.775c-1.994,0-3.805,0.415-5.428,1.246c-1.535,0.83-2.818,2.132-3.852,3.904
		c-0.59-1.477-1.458-2.687-2.604-3.628c-1.421-1.014-3.285-1.522-5.593-1.522c-2.437,0-4.422,0.59-5.954,1.771
		c-0.779,0.596-1.604,1.578-2.471,2.901v-3.869h-7.893v33.148c0,1.09-0.198,1.824-0.595,2.201c-0.397,0.379-0.983,0.568-1.759,0.568
		c-0.147,0-0.314-0.004-0.498-0.014c-0.186-0.01-0.499-0.033-0.942-0.068v6.312c0.702,0.02,1.288,0.037,1.759,0.057
		c0.471,0.018,0.826,0.027,1.066,0.027c3.508,0,5.861-0.73,7.062-2.188c1.2-1.459,1.8-3.711,1.8-6.758V31.437l0.033-0.161
		c0-1.643,0.212-2.88,0.638-3.711c0.774-1.459,2.289-2.188,4.542-2.188c1.938,0,3.238,0.73,3.903,2.188
		c0.369,0.812,0.555,2.114,0.555,3.905v17.974h7.945V31.47c0-1.348,0.212-2.502,0.638-3.462c0.832-1.809,2.336-2.714,4.514-2.714
		c1.885,0,3.177,0.702,3.878,2.104c0.368,0.739,0.555,1.68,0.555,2.825v19.218h8.086l0.056-19.025
		C56.18,28.46,56.09,26.974,55.905,25.958z"/>
</g>
</svg>
