<?xml version="1.0" encoding="utf-8"?>
<!-- Generator: Adobe Illustrator 16.0.0, SVG Export Plug-In . SVG Version: 6.00 Build 0)  -->
<!DOCTYPE svg PUBLIC "-//W3C//DTD SVG 1.1//EN" "http://www.w3.org/Graphics/SVG/1.1/DTD/svg11.dtd">
<svg version="1.1" id="Capa_1" xmlns="http://www.w3.org/2000/svg" xmlns:xlink="http://www.w3.org/1999/xlink" x="0px" y="0px"
	 width="65.333px" height="70px" viewBox="0 0 65.333 70" enable-background="new 0 0 65.333 70" xml:space="preserve">
<g>
	<path d="M68.636-404.515c-0.476-0.212-0.866-0.514-1.171-0.906l1.08-1.296c0.457,0.616,0.977,0.924,1.561,0.924
		c0.792,0,1.188-0.464,1.188-1.392v-3.996h-2.951v-1.56h4.885v5.448c0,1.032-0.256,1.806-0.77,2.322
		c-0.512,0.516-1.264,0.772-2.256,0.772C69.633-404.197,69.112-404.303,68.636-404.515z"/>
</g>
<g>
	<path d="M79.224-404.383l-0.013-5.04l-2.471,4.152h-0.878l-2.46-4.044l-1.068-1.539l-0.754,6.471v-7.4l1.607-1l3.145,5.22
		l3.097-5.22h1.596l0.024,8.4H79.224z"/>
</g>
<text transform="matrix(1 0 0 1 106.5669 -421.2578)" font-family="'OpenSans-Bold'" font-size="12">jM</text>
<g>
	<path fill="#FFFFFF" d="M17.44,14.923c1.532,0,2.681-0.364,3.448-1.095c0.766-0.729,1.149-1.748,1.149-3.06
		c0-2.751-1.532-4.126-4.597-4.126c-3.065,0-4.597,1.375-4.597,4.126C12.843,13.538,14.375,14.923,17.44,14.923z"/>
	<path fill="#FFFFFF" d="M57.489,20.891c-1.801-1.801-4.454-2.7-7.962-2.7c-2.03,0-3.854,0.397-5.47,1.19
		c-1.615,0.794-2.838,1.911-3.669,3.351h-0.747c-1.645-3.027-4.782-4.541-9.416-4.541c-2.031,0-3.831,0.401-5.4,1.204
		c-1.329,0.681-2.376,1.596-3.175,2.719v-3.342h-2.031h-6.416h-0.037v30.961h0.037v2.104c0,1.551-0.328,2.724-0.983,3.518
		c-0.656,0.793-1.694,1.19-3.115,1.19c-1.348,0-2.668-0.176-3.96-0.526v6.646c1.551,0.461,3.406,0.692,5.566,0.692
		c3.489,0,6.185-0.891,8.086-2.673c1.901-1.781,2.852-4.315,2.852-7.602V33.599c0.125-2.826,0.6-4.921,1.431-6.27
		c0.979-1.588,2.548-2.382,4.708-2.382c1.606,0,2.783,0.559,3.531,1.676s1.122,2.792,1.122,5.026v18.083h8.447V34.196
		c0-3.212,0.512-5.557,1.537-7.033c1.023-1.478,2.57-2.216,4.639-2.216c1.605,0,2.782,0.559,3.53,1.676
		c0.747,1.117,1.122,2.792,1.122,5.026v18.083h8.473V29.544C60.188,25.575,59.289,22.69,57.489,20.891z"/>
</g>
</svg>
