<?xml version="1.0" standalone="no"?>
<!DOCTYPE svg PUBLIC "-//W3C//DTD SVG 20010904//EN"
 "http://www.w3.org/TR/2001/REC-SVG-20010904/DTD/svg10.dtd">
<svg version="1.0" xmlns="http://www.w3.org/2000/svg"
 width="775.000000pt" height="656.000000pt" viewBox="0 0 775.000000 656.000000"
 preserveAspectRatio="xMidYMid meet">

<g transform="translate(0.000000,656.000000) scale(0.100000,-0.100000)"
fill="#000000" stroke="none">
<path d="M2160 4258 c-492 -853 -896 -1555 -898 -1560 -2 -4 455 -9 1015 -9
560 -1 1051 -4 1091 -8 l72 -6 33 -55 33 -55 87 -3 c48 -1 87 -1 87 2 0 3 -13
28 -30 56 -16 28 -30 53 -30 55 0 3 279 5 620 5 341 0 620 3 620 8 0 4 -144
252 -319 552 -314 538 -318 545 -292 551 44 11 1771 10 1771 -1 0 -9 -1495
-2617 -1509 -2633 -4 -4 -68 97 -143 225 l-135 233 -92 3 -91 3 32 -59 c216
-384 414 -732 418 -732 5 0 1788 3086 1798 3112 2 4 -459 9 -1025 9 -565 1
-1056 4 -1091 8 l-62 6 -33 55 -33 55 -87 3 c-48 1 -87 1 -87 -2 0 -3 14 -28
30 -56 17 -28 30 -53 30 -55 0 -3 -279 -5 -620 -5 -341 0 -620 -3 -620 -7 0
-5 144 -253 319 -553 291 -499 316 -546 297 -552 -35 -10 -1776 -9 -1776 2 0
9 1495 2617 1509 2633 4 4 68 -97 143 -225 l135 -233 92 -3 91 -3 -32 59
c-216 384 -414 732 -418 732 -3 0 -408 -698 -900 -1552z m2147 -933 c145 -253
263 -463 263 -468 0 -4 -237 -6 -527 -5 l-527 3 -263 460 c-145 253 -263 463
-263 468 0 4 237 6 527 5 l527 -3 263 -460z"/>
</g>
</svg>
